<svg xmlns="http://www.w3.org/2000/svg" viewBox="0 0 400 400">
  <g fill="#5741d9" fill-rule="nonzero" transform="matrix(0.83375,0,0,0.826383,12.4912,-65.0723)">
    <path d="m 210.08285,136.38703 c 41.39394,-2.78613 83.58392,5.57226 120.59965,24.27913 54.92657,27.06527 98.70862,75.62355 119.00758,132.93823 9.15442,25.47319 13.93065,52.14044 13.93065,79.20571 v 99.90268 c 0,3.98019 0,8.35839 -0.79604,12.33858 -2.38811,9.95046 -9.55245,19.10489 -19.10489,23.4831 -6.76632,3.18415 -14.32868,3.58217 -21.09499,2.38811 -15.12471,-2.78613 -27.06527,-17.1148 -27.06527,-32.63753 v -93.13636 c 0.39802,-8.75641 0.39802,-18.30886 -4.3782,-25.87121 -7.56236,-14.32867 -26.66725,-21.09499 -41.39394,-15.12471 -12.7366,4.3782 -21.89103,17.51282 -22.28905,31.04545 v 94.33042 c 0,5.97028 0.39802,11.94056 -1.59207,17.51282 -3.18415,11.14452 -12.33858,19.90093 -23.4831,23.08508 -14.72669,3.98019 -31.44348,-2.38811 -38.60781,-15.92074 -5.17424,-7.96038 -4.77622,-17.91084 -4.37821,-27.06527 v -93.9324 c -0.39801,-15.92075 -13.53263,-30.24942 -29.05536,-32.23951 -10.34848,-1.59208 -21.09499,1.99009 -28.65734,9.15443 -6.76632,6.3683 -10.34848,15.52273 -10.34848,24.67715 v 91.14627 c 0,7.56236 0.79603,15.52273 -1.9901,22.68707 -4.3782,13.13461 -17.51282,22.68706 -31.44347,22.28904 -14.32867,0.79604 -28.25932,-9.15443 -32.63753,-22.28904 -2.38811,-6.76632 -1.99009,-13.53264 -1.99009,-20.69697 v -94.33042 c 0,-15.52273 -12.33858,-29.8514 -27.463288,-32.63753 -13.930653,-2.78613 -29.055361,3.98019 -36.219697,16.71678 -2.786131,5.17424 -4.378205,11.14452 -4.378205,17.1148 v 102.2908 c 0,9.95046 -4.378205,19.90093 -11.940559,26.26923 -11.542541,9.95046 -30.249417,10.7465 -42.1899766,1.59207 -8.7564102,-5.97028 -13.9306524,-16.31876 -13.9306524,-27.06527 V 374.40218 c 0,-39.00583 9.950466,-78.01166 28.657342,-112.63928 15.124709,-28.25932 36.219697,-53.3345 61.294871,-73.23543 37.015735,-31.04546 84.379955,-49.35431 132.938225,-52.14044 z" />
  </g>
</svg>
